ply
format ascii 1.0
element vertex 24
property float x
property float y
property float z
element face 14
property list uchar int vertex_indices
end_header
0.092878 0.233365 -0.410330
0.114244 0.233263 -0.410283
0.114298 0.246785 -0.405847
0.092932 0.246887 -0.405894
-0.004953 0.078758 -0.146004
0.208707 0.077742 -0.145526
0.209251 0.212963 -0.101165
-0.004409 0.213979 -0.101643
-0.003866 0.080476 -0.148941
0.013698 0.080393 -0.148901
0.013765 0.097069 -0.143430
-0.003799 0.097153 -0.143470
-0.701036 0.103207 -1.132433
-0.694360 0.107302 -1.137368
-0.696875 0.113539 -1.135595
-0.703551 0.109445 -1.130660
-0.547095 0.055782 -0.873151
-0.480341 0.096724 -0.922497
-0.505494 0.159097 -0.904772
-0.572248 0.118155 -0.855425
-0.548806 0.056309 -0.876032
-0.532332 0.066412 -0.888209
-0.540611 0.086942 -0.882375
-0.557084 0.076838 -0.870198
4 3 2 1 0
4 4 5 6 7
4 0 1 5 4
4 1 2 6 5
4 2 3 7 6
4 3 0 4 7
4 8 9 10 11
4 15 14 13 12
4 16 17 18 19
4 12 13 17 16
4 13 14 18 17
4 14 15 19 18
4 15 12 16 19
4 20 21 22 23
